<svg width="170" height="32" viewBox="0 0 170 32" fill="none" xmlns="http://www.w3.org/2000/svg">
<path d="M44.7953 23.084C46.9796 23.084 48.8834 22.122 50.1059 20.599L48.5828 19.3765C47.7011 20.4587 46.3383 21.1601 44.8153 21.1601C41.9897 21.1601 39.8454 18.8355 39.8454 16.0098C39.8454 13.1641 42.0097 10.8595 44.8153 10.8595C46.3383 10.8595 47.7011 11.5409 48.5828 12.6431L50.1059 11.4207C48.8834 9.89761 46.9796 8.93569 44.7953 8.93569C40.8875 8.93569 37.7812 12.102 37.7812 16.0098C37.7812 19.9176 40.8875 23.084 44.7953 23.084Z" fill="#2B5472"/>
<path d="M52.9988 22.8835H60.614V20.9998H55.063V9.07597H52.9988V22.8835Z" fill="#2B5472"/>
<path d="M63.3022 22.8835H65.3664V9.07597H63.3022V22.8835Z" fill="#2B5472"/>
<path d="M85.2674 22.8835L83.584 9.07597H81.7403L76.9908 19.0158L72.2413 9.07597H70.3977L68.7143 22.8835H70.7584L71.9808 12.8635L76.1291 21.3605H77.8926L82.0008 12.8635L83.2233 22.8835H85.2674Z" fill="#2B5472"/>
<path d="M97.2432 22.8835H99.4075L94.1971 9.07597H91.9927L86.7622 22.8835H88.9265L90.2091 19.3966H95.9406L97.2432 22.8835ZM90.8704 17.593L93.0748 11.6411L95.2792 17.593H90.8704Z" fill="#2B5472"/>
<path d="M109.312 9.07597H99.0316V10.9597H103.14V22.8835H105.204V10.9597H109.312V9.07597Z" fill="#2B5472"/>
<path d="M114.016 20.9998V17.0519H119.447V15.1481H114.016V10.9597H120.249V9.07597H111.972V22.8835H120.429V20.9998H114.016Z" fill="#2B5472"/>
<path d="M131.018 15.5289C132.361 15.0078 132.782 13.7653 132.782 12.6231C132.782 10.4788 131.319 9.07597 128.974 9.07597H123.724V22.8835H129.415C132.06 22.8835 133.523 20.9597 133.523 18.9757C133.523 17.4727 132.662 15.8695 131.018 15.5289ZM128.934 10.9597C130.116 10.9597 130.718 11.7613 130.718 12.8435C130.718 13.9657 130.116 14.7673 128.974 14.7673H125.788V10.9597H128.934ZM129.014 20.9998H125.788V16.5309H129.114C130.718 16.5309 131.459 17.6531 131.459 18.7753C131.459 19.9777 130.617 20.9998 129.014 20.9998Z" fill="#2B5472"/>
<path d="M145.424 22.8835H147.588L142.378 9.07597H140.173L134.943 22.8835H137.107L138.39 19.3966H144.121L145.424 22.8835ZM139.051 17.593L141.255 11.6411L143.46 17.593H139.051Z" fill="#2B5472"/>
<path d="M153.702 23.084C156.487 23.084 158.371 21.2603 158.371 18.9557C158.371 16.9317 156.908 15.6691 154.583 15.088L152.84 14.6471C151.097 14.2062 150.956 13.2844 150.956 12.8435C150.956 11.581 152.119 10.7994 153.421 10.7994C154.844 10.7994 155.866 11.6812 155.866 12.9838H157.91C157.91 10.4788 155.966 8.91565 153.481 8.91565C151.036 8.91565 148.892 10.4587 148.892 12.8836C148.892 14.0259 149.373 15.7693 152.319 16.5108L154.082 16.9517C155.205 17.2523 156.307 17.8335 156.307 19.0559C156.307 20.1982 155.345 21.2002 153.702 21.2002C151.978 21.2002 150.876 20.0579 150.836 18.8755H148.792C148.792 21.1 150.756 23.084 153.702 23.084Z" fill="#2B5472"/>
<path d="M163.586 20.9998V17.0519H169.017V15.1481H163.586V10.9597H169.819V9.07597H161.542V22.8835H169.999V20.9998H163.586Z" fill="#2B5472"/>
<path fill-rule="evenodd" clip-rule="evenodd" d="M14.3974 15.6425C13.8972 12.7092 11.3429 10.4763 8.26708 10.4763C4.83235 10.4763 2.04795 13.2607 2.04795 16.6954C2.04795 20.0531 4.70875 22.7892 8.03679 22.9104C8.11321 22.9132 8.18998 22.9146 8.26708 22.9146C8.35471 22.9146 8.44191 22.9127 8.52866 22.9092C8.52911 23.0903 8.53662 23.2699 8.55093 23.4475C8.55478 23.4953 8.55913 23.5429 8.56396 23.5905C8.58731 23.82 8.62205 24.0463 8.66759 24.2685C8.53496 24.2754 8.40143 24.2789 8.26708 24.2789C8.16876 24.2789 8.07088 24.277 7.97347 24.2733C3.9213 24.1191 0.683594 20.7853 0.683594 16.6954C0.683594 12.5072 4.07884 9.11194 8.26708 9.11194C12.013 9.11194 15.1245 11.8278 15.74 15.3979C15.779 15.6242 15.808 15.8539 15.8265 16.0865C15.6692 16.0757 15.5104 16.0701 15.3504 16.0701C15.2803 16.0701 15.2104 16.0712 15.1408 16.0733C15.0924 16.0748 15.0441 16.0767 14.996 16.0792C14.8156 16.0884 14.6371 16.1047 14.4606 16.1276C14.4458 15.964 14.4247 15.8022 14.3974 15.6425ZM10.2212 12.0647L9.95544 12.693C9.43473 12.4727 8.86173 12.3506 8.25846 12.3506C7.88467 12.3506 7.52281 12.3975 7.17802 12.4853C5.29213 12.9659 3.89819 14.6764 3.89819 16.7108C3.89819 18.5159 4.99513 20.0662 6.56145 20.7287C7.02765 20.9259 7.53579 21.0445 8.07004 21.0671C8.65577 18.723 10.3425 16.8171 12.5488 15.9286C12.2841 14.4671 11.2901 13.2575 9.95544 12.693L10.2212 12.0647ZM13.2906 16.3866C13.167 14.4381 11.9366 12.7902 10.2212 12.0647C9.61792 11.8095 8.95467 11.6684 8.25846 11.6684C7.8274 11.6684 7.40896 11.7225 7.00959 11.8243C4.82879 12.3799 3.21602 14.3571 3.21602 16.7108C3.21602 18.7995 4.4859 20.5915 6.2957 21.357C6.89897 21.6122 7.56223 21.7533 8.25844 21.7533C8.38187 21.7533 8.50426 21.7488 8.62546 21.7401C9.05641 19.2058 10.8852 17.1476 13.2906 16.3866Z" fill="#2B5472"/>
<path fill-rule="evenodd" clip-rule="evenodd" d="M15.6883 16.0105C15.6666 16.2322 15.6554 16.457 15.6554 16.6844L15.6554 16.6919C15.584 16.6882 15.5122 16.6857 15.4402 16.6844C15.4021 16.6837 15.3639 16.6833 15.3257 16.6833C15.2874 16.6833 15.2493 16.6837 15.2112 16.6844C15.1347 16.6857 15.0586 16.6885 14.9829 16.6926C11.7076 16.8705 9.10654 19.5828 9.10654 22.9025C9.10654 26.3372 11.8909 29.1216 15.3257 29.1216C18.3494 29.1216 20.8691 26.9637 21.4289 24.1039C21.4714 23.8863 21.5027 23.6648 21.5219 23.4398C21.7451 23.4711 21.9718 23.4915 22.2014 23.5007C22.2014 23.5007 22.2014 23.5007 22.2015 23.5007C22.2929 23.5043 22.3849 23.5061 22.4772 23.5061C22.6146 23.5061 22.751 23.5021 22.8864 23.4941C22.8685 23.7263 22.8401 23.9555 22.8018 24.1814C22.1939 27.7606 19.078 30.4859 15.3257 30.4859C11.1374 30.4859 7.74219 27.0907 7.74219 22.9025C7.74219 18.7908 11.0144 15.4434 15.0967 15.3224C15.1727 15.3201 15.2491 15.319 15.3257 15.319C15.4814 15.319 15.6359 15.3237 15.7893 15.3329C15.7447 15.5551 15.7108 15.7811 15.6883 16.0105C15.6883 16.0105 15.6883 16.0105 15.6883 16.0105ZM22.1092 24.1794C22.1091 24.1794 22.109 24.1794 22.109 24.1794C21.5098 27.3811 18.701 29.8038 15.3257 29.8038C18.7008 29.8038 21.5105 27.3806 22.1092 24.1794ZM15.7625 17.8949C15.6157 17.882 15.4672 17.8755 15.317 17.8755C14.886 17.8755 14.4676 17.9295 14.0682 18.0313C11.8874 18.587 10.2746 20.5641 10.2746 22.9179C10.2746 25.0065 11.5445 26.7986 13.3543 27.564C13.9576 27.8192 14.6208 27.9603 15.317 27.9603C15.6651 27.9603 16.005 27.925 16.3333 27.8579C16.8038 27.7616 17.2505 27.5997 17.6634 27.3823C19.1968 26.5747 20.2635 25.0002 20.3533 23.169C17.9981 22.3981 16.2075 20.3798 15.7625 17.8949ZM19.6203 23.6251C17.4567 22.7337 15.8015 20.8607 15.2095 18.5589C14.8738 18.567 14.5482 18.613 14.2366 18.6924C12.3507 19.1729 10.9568 20.8835 10.9568 22.9179C10.9568 24.7229 12.0537 26.2733 13.62 26.9358C14.1407 27.156 14.7138 27.2781 15.317 27.2781C15.6189 27.2781 15.913 27.2475 16.1965 27.1895C16.6029 27.1064 16.9887 26.9666 17.3455 26.7787C18.534 26.1528 19.3968 24.9956 19.6203 23.6251Z" fill="#2B5472"/>
<path fill-rule="evenodd" clip-rule="evenodd" d="M7.48855 9.49895C7.49202 9.55283 7.49605 9.60656 7.50064 9.66012C7.67155 9.6473 7.84421 9.64077 8.0184 9.64077C8.07377 9.64077 8.12899 9.64143 8.18404 9.64274C8.4174 9.6483 8.64786 9.66558 8.87486 9.69402C8.84985 9.46746 8.83701 9.23724 8.83701 9.00402C8.83701 9.00361 8.83701 9.0032 8.83701 9.00279C8.83768 5.56862 11.6218 2.78489 15.0561 2.78489C18.4909 2.78489 21.2753 5.56929 21.2753 9.00402C21.2753 12.3171 18.6847 15.0251 15.4186 15.2128C15.2987 15.2197 15.1778 15.2232 15.0561 15.2232C14.9455 15.2232 14.8355 15.2203 14.7263 15.2146C14.7679 15.4398 14.7985 15.6689 14.8174 15.9013C14.8325 16.0864 14.8402 16.2736 14.8402 16.4625C14.8402 16.5033 14.8398 16.5439 14.8391 16.5845C14.8934 16.586 14.9477 16.5869 15.0023 16.5873C15.0202 16.5874 15.0382 16.5875 15.0561 16.5875C15.2124 16.5875 15.3676 16.5828 15.5215 16.5735C19.493 16.333 22.6396 13.036 22.6396 9.00402C22.6396 4.81578 19.2444 1.42053 15.0561 1.42053C10.8765 1.42053 7.48664 4.80181 7.4727 8.97816C7.47267 8.98678 7.47266 8.9954 7.47266 9.00402C7.47266 9.1703 7.47801 9.33533 7.48855 9.49895ZM17.0102 4.37328L16.7445 5.00157C16.2238 4.78133 15.6508 4.6592 15.0475 4.6592C14.6737 4.6592 14.3119 4.70608 13.9671 4.79393C12.0812 5.27445 10.6873 6.98501 10.6873 9.01944C10.6873 9.16677 10.6945 9.31221 10.7087 9.45547C12.5554 10.1649 14.0496 11.5823 14.8599 13.3757C14.9221 13.3784 14.9846 13.3797 15.0475 13.3797C15.3494 13.3797 15.6435 13.3491 15.927 13.2911C16.3334 13.2079 16.7192 13.0682 17.076 12.8803C18.4639 12.1493 19.4078 10.694 19.4078 9.01944C19.4078 7.21444 18.3108 5.66406 16.7445 5.00157L17.0102 4.37328ZM14.3896 14.0193C14.6049 14.0474 14.8245 14.0619 15.0475 14.0619C15.3956 14.0619 15.7355 14.0266 16.0637 13.9594C16.5343 13.8631 16.981 13.7013 17.3939 13.4839C18.997 12.6396 20.0899 10.9572 20.0899 9.01944C20.0899 6.9308 18.8201 5.13876 17.0102 4.37328C16.407 4.11812 15.7437 3.97702 15.0475 3.97702C14.6165 3.97702 14.198 4.03111 13.7986 4.13287C11.6178 4.68853 10.0051 6.66565 10.0051 9.01944C10.0051 9.34156 10.0353 9.65663 10.093 9.96196C12.0675 10.5916 13.6516 12.0959 14.3896 14.0193Z" fill="#2B5472"/>
<path fill-rule="evenodd" clip-rule="evenodd" d="M21.3191 12.7097C20.5325 14.1679 19.2795 15.3308 17.7664 16.0064C17.7014 16.281 17.6622 16.5663 17.6517 16.86C17.5871 18.6639 18.6279 20.2525 20.1695 20.9706C20.682 21.2093 21.2502 21.3519 21.8531 21.3735C22.1548 21.3843 22.4498 21.3642 22.7352 21.3164C23.1443 21.2478 23.5349 21.1219 23.8982 20.9469C25.3114 20.2661 26.3067 18.8455 26.3666 17.172C26.4311 15.3681 25.3904 13.7795 23.8487 13.0614L24.1368 12.443C25.9181 13.2728 27.123 15.1091 27.0483 17.1964C26.979 19.1329 25.8265 20.7751 24.1943 21.5615C23.7739 21.764 23.3217 21.9098 22.848 21.9892C22.5175 22.0446 22.1766 22.0677 21.8287 22.0552C21.133 22.0303 20.4752 21.8656 19.8814 21.589C18.1002 20.7593 16.8952 18.9229 16.9699 16.8356C16.9865 16.3729 17.0649 15.927 17.1969 15.5055C18.8011 14.8771 20.1158 13.6568 20.8621 12.1045C20.8866 12.0988 20.9112 12.0932 20.9359 12.0879C21.3386 12.0005 21.7587 11.9614 22.1895 11.9768C22.8853 12.0017 23.543 12.1665 24.1368 12.443L23.8487 13.0614C23.3363 12.8227 22.768 12.6801 22.1651 12.6586C21.8761 12.6482 21.5933 12.6662 21.3191 12.7097ZM14.5047 15.9697C14.4707 16.2192 14.4489 16.4727 14.4397 16.7296C14.2898 20.9152 17.5615 24.4297 21.747 24.5795C25.9326 24.7294 29.4471 21.4577 29.5969 17.2722C29.7467 13.0866 26.4751 9.5721 22.2896 9.42227C22.0326 9.41308 21.7782 9.41677 21.5269 9.43279C21.5173 9.66566 21.4961 9.89534 21.4639 10.1213C21.4302 10.3583 21.3843 10.5913 21.327 10.8195C21.5601 10.7937 21.797 10.7809 22.0368 10.7817C22.1046 10.782 22.1726 10.7833 22.2408 10.7858C25.6733 10.9086 28.3563 13.7908 28.2334 17.2234C28.1106 20.6559 25.2284 23.3389 21.7958 23.2161C18.3633 23.0932 15.6803 20.211 15.8031 16.7784C15.8056 16.7102 15.8091 16.6423 15.8137 16.5747C15.83 16.3355 15.8597 16.1001 15.9021 15.8694C15.6704 15.9103 15.4348 15.9394 15.1959 15.9561C14.9683 15.972 14.7376 15.9767 14.5047 15.9697Z" fill="#2B5472"/>
</svg>
