<svg width="20" height="20" viewBox="0 0 20 20" fill="none" xmlns="http://www.w3.org/2000/svg">
<path d="M4.16667 16.6667C4.16667 17.1087 4.34226 17.5326 4.65482 17.8452C4.96738 18.1577 5.39131 18.3333 5.83333 18.3333H14.1667C14.6087 18.3333 15.0326 18.1577 15.3452 17.8452C15.6577 17.5326 15.8333 17.1087 15.8333 16.6667V6.66666H17.5V4.99999H14.1667V3.33332C14.1667 2.8913 13.9911 2.46737 13.6785 2.15481C13.3659 1.84225 12.942 1.66666 12.5 1.66666H7.5C7.05797 1.66666 6.63405 1.84225 6.32149 2.15481C6.00893 2.46737 5.83333 2.8913 5.83333 3.33332V4.99999H2.5V6.66666H4.16667V16.6667ZM7.5 3.33332H12.5V4.99999H7.5V3.33332ZM6.66667 6.66666H14.1667V16.6667H5.83333V6.66666H6.66667Z" fill="white"/>
<path d="M4.16667 16.6667C4.16667 17.1087 4.34226 17.5326 4.65482 17.8452C4.96738 18.1577 5.39131 18.3333 5.83333 18.3333H14.1667C14.6087 18.3333 15.0326 18.1577 15.3452 17.8452C15.6577 17.5326 15.8333 17.1087 15.8333 16.6667V6.66666H17.5V4.99999H14.1667V3.33332C14.1667 2.8913 13.9911 2.46737 13.6785 2.15481C13.3659 1.84225 12.942 1.66666 12.5 1.66666H7.5C7.05797 1.66666 6.63405 1.84225 6.32149 2.15481C6.00893 2.46737 5.83333 2.8913 5.83333 3.33332V4.99999H2.5V6.66666H4.16667V16.6667ZM7.5 3.33332H12.5V4.99999H7.5V3.33332ZM6.66667 6.66666H14.1667V16.6667H5.83333V6.66666H6.66667Z" fill="#55879C" fill-opacity="0.65"/>
<path d="M7.5 8.33334H9.16667V15H7.5V8.33334ZM10.8333 8.33334H12.5V15H10.8333V8.33334Z" fill="white"/>
<path d="M7.5 8.33334H9.16667V15H7.5V8.33334ZM10.8333 8.33334H12.5V15H10.8333V8.33334Z" fill="#55879C" fill-opacity="0.65"/>
</svg>
