<svg width="16" height="16" viewBox="0 0 16 16" fill="none" xmlns="http://www.w3.org/2000/svg">
<path d="M13.3333 4.00001H11.3333V2.66668C11.3333 1.93134 10.7353 1.33334 10 1.33334H6.00001C5.26468 1.33334 4.66668 1.93134 4.66668 2.66668V4.00001H2.66668C1.93134 4.00001 1.33334 4.59801 1.33334 5.33334V7.33334H14.6667V5.33334C14.6667 4.59801 14.0687 4.00001 13.3333 4.00001ZM6.00001 2.66668H10V4.00001H6.00001V2.66668ZM9.33334 9.33334H6.66668V8.00001H1.33334V12.6667C1.33334 13.402 1.93134 14 2.66668 14H13.3333C14.0687 14 14.6667 13.402 14.6667 12.6667V8.00001H9.33334V9.33334Z" fill="#55879C"/>
</svg>
