<svg width="24" height="24" viewBox="0 0 24 24" fill="none" xmlns="http://www.w3.org/2000/svg">
<path d="M1.42921 0.909822C1.26789 0.986233 1.04715 1.18151 0.945272 1.34282L0.75 1.63148V12.0064V22.3812L0.945272 22.6699C1.3528 23.2812 1.09809 23.2557 7.22793 23.2557H12.721V18.8409V14.4345H11.3201H9.91079L9.89381 12.8214L9.87683 11.1998H11.2862H12.704L12.7465 9.43386C12.772 8.10092 12.8229 7.56604 12.9333 7.20946C13.3832 5.76615 14.1983 4.95959 15.6501 4.5266C16.0576 4.39924 16.4312 4.37377 17.5094 4.38227C18.2481 4.39075 19.0037 4.42472 19.182 4.45019L19.5131 4.50961V5.8935V7.26889L18.3754 7.31134C17.3396 7.3453 17.2123 7.37077 16.8642 7.57453C16.2444 7.93961 16.1595 8.19431 16.1595 9.79893V11.1573L17.7981 11.1828L19.4367 11.1998L19.3942 11.4375C19.3687 11.5649 19.2669 12.278 19.1735 13.0167C19.0801 13.7553 18.9952 14.3836 18.9697 14.4006C18.9527 14.4175 18.316 14.443 17.5519 14.4515L16.1595 14.4685L16.134 18.6965C16.1255 21.5152 16.1425 22.9755 16.2019 23.0859C16.2868 23.2472 16.4057 23.2557 19.2669 23.2557C22.0941 23.2557 22.2554 23.2472 22.578 23.0774C22.8242 22.9586 22.9685 22.8057 23.0874 22.551C23.2402 22.2029 23.2487 21.8379 23.2487 12.0064V1.80977L23.0619 1.43621C22.6799 0.697571 23.6308 0.757002 11.9994 0.757002C2.38859 0.757002 1.70938 0.765491 1.42921 0.909822Z" fill="white"/>
</svg>
