<svg width="24" height="19" viewBox="0 0 24 19" fill="none" xmlns="http://www.w3.org/2000/svg">
<path d="M15.1302 0.141172C13.6873 0.553446 12.5344 1.64521 11.9771 3.11107C11.8015 3.56152 11.7786 3.73712 11.7786 4.64565L11.771 5.6687L11.1831 5.62289C9.77066 5.50837 8.18264 5.05792 6.73204 4.34789C5.17456 3.58442 3.98355 2.68353 2.85361 1.4238C2.5635 1.09551 2.30392 0.83593 2.26574 0.83593C2.2352 0.83593 2.13595 1.00389 2.04434 1.21003C1.50991 2.46212 1.51754 3.95852 2.06724 5.14954C2.31155 5.67633 2.87652 6.40163 3.3117 6.75283L3.67816 7.04295L3.28116 6.99714C3.05975 6.97423 2.66275 6.85971 2.40317 6.75283C2.13595 6.63831 1.8382 6.53142 1.73895 6.50852C1.55571 6.46271 1.55571 6.46271 1.60916 6.9666C1.79239 8.76839 3.09792 10.3946 4.76993 10.9137C5.0066 10.9901 5.15166 11.0664 5.09822 11.097C5.05241 11.1275 4.6325 11.1428 4.17442 11.1351C3.71634 11.1275 3.3117 11.1351 3.28879 11.1657C3.21245 11.242 3.41095 11.723 3.71634 12.204C4.48744 13.3874 5.67846 14.1585 7.03743 14.3341L7.49552 14.3952L7.07561 14.67C5.47995 15.7007 3.47203 16.258 1.67787 16.1588C1.04419 16.1206 0.883861 16.1359 0.807513 16.2275C0.685358 16.3726 0.654819 16.3497 1.80766 16.9375C3.54837 17.8308 5.29672 18.2889 7.26647 18.3652C11.771 18.5561 15.657 16.7467 18.3139 13.2423C19.9859 11.0283 21.0395 7.93621 21.0471 5.20298C21.0471 4.82125 21.0777 4.50059 21.1158 4.50059C21.3296 4.50059 23.3528 2.35524 23.2459 2.24835C23.2306 2.22545 23.0398 2.27889 22.826 2.36287C22.4366 2.50793 21.4594 2.76751 20.9708 2.85149L20.7036 2.8973L20.9326 2.72934C21.4594 2.35524 22.1618 1.54596 22.4366 0.988625C22.597 0.675602 22.7115 0.408386 22.6962 0.393118C22.6809 0.377848 22.4901 0.454195 22.2763 0.561081C21.6961 0.858833 21.1616 1.06497 20.444 1.26347L19.8027 1.43907L19.4133 1.09551C18.9552 0.69087 18.1459 0.278597 17.497 0.110634C16.8862 -0.0420609 15.7181 -0.0267906 15.1302 0.141172Z" fill="white"/>
</svg>
