<svg width="36" height="43" viewBox="0 0 36 43" fill="none" xmlns="http://www.w3.org/2000/svg">
<path d="M31.0698 0.00338367H4.92897C3.76696 -0.0421821 2.63413 0.373958 1.77793 1.16091C0.921727 1.94785 0.411745 3.04165 0.359375 4.20338V31.5435C0.411745 32.7052 0.921727 33.799 1.77793 34.5859C2.63413 35.3729 3.76696 35.789 4.92897 35.7435H22.7798L30.0038 42.2451C30.0797 42.3176 30.1693 42.3743 30.2674 42.4118C30.3654 42.4493 30.47 42.4669 30.575 42.4635C30.7977 42.4635 31.0114 42.375 31.1689 42.2174C31.3265 42.0599 31.415 41.8463 31.415 41.6235V35.7435H31.0698C32.2318 35.789 33.3646 35.3729 34.2208 34.5859C35.077 33.799 35.587 32.7052 35.6394 31.5435V4.20338C35.587 3.04165 35.077 1.94785 34.2208 1.16091C33.3646 0.373958 32.2318 -0.0421821 31.0698 0.00338367Z" fill="white"/>
</svg>
